<svg xmlns="http://www.w3.org/2000/svg" xmlns:xlink="http://www.w3.org/1999/xlink" width="500" zoomAndPan="magnify" viewBox="0 0 375 149.999998" height="200" preserveAspectRatio="xMidYMid meet" version="1.0"><defs><g/><clipPath id="849a085193"><path d="M 344 25 L 373.039062 25 L 373.039062 62.066406 L 344 62.066406 Z M 344 25 " clip-rule="nonzero"/></clipPath><clipPath id="0eeb319b18"><path d="M 313.976562 17.4375 L 335 17.4375 L 335 45 L 313.976562 45 Z M 313.976562 17.4375 " clip-rule="nonzero"/></clipPath></defs><g fill="#ffffff" fill-opacity="1"><g transform="translate(1.94692, 103.257078)"><g><path d="M 31.546875 -56.265625 L 55.46875 0 L 47.6875 0 L 41.953125 -13.828125 L 13.828125 -13.828125 L 8.03125 0 L 0.484375 0 L 25.265625 -56.265625 Z M 28.125 -47.6875 L 16.453125 -20.03125 L 39.421875 -20.03125 L 28.296875 -47.6875 Z M 28.125 -47.6875 "/></g></g></g><g fill="#ffffff" fill-opacity="1"><g transform="translate(57.88748, 103.257078)"><g><path d="M 26.9375 -56.265625 C 35.144531 -56.265625 41.875 -53.679688 47.125 -48.515625 C 52.375 -43.347656 55.050781 -36.550781 55.15625 -28.125 C 55.15625 -19.757812 52.519531 -13.003906 47.25 -7.859375 C 41.976562 -2.722656 35.257812 -0.101562 27.09375 0 L 5.953125 0 L 5.953125 -56.265625 Z M 25.34375 -6.203125 C 32.394531 -6.203125 37.921875 -8.066406 41.921875 -11.796875 C 45.921875 -15.535156 47.945312 -20.976562 48 -28.125 C 48 -35.019531 46.035156 -40.375 42.109375 -44.1875 C 38.191406 -48 32.601562 -49.957031 25.34375 -50.0625 L 12.640625 -50.0625 L 12.640625 -6.203125 Z M 25.34375 -6.203125 "/></g></g></g><g fill="#ffffff" fill-opacity="1"><g transform="translate(116.76811, 103.257078)"><g><path d="M 31.546875 -56.265625 L 55.46875 0 L 47.6875 0 L 41.953125 -13.828125 L 13.828125 -13.828125 L 8.03125 0 L 0.484375 0 L 25.265625 -56.265625 Z M 28.125 -47.6875 L 16.453125 -20.03125 L 39.421875 -20.03125 L 28.296875 -47.6875 Z M 28.125 -47.6875 "/></g></g></g><g fill="#ffffff" fill-opacity="1"><g transform="translate(172.708671, 103.257078)"><g><path d="M 16.921875 -56.265625 L 36 -12.15625 L 36.15625 -12.15625 L 55.390625 -56.265625 L 65.078125 -56.265625 L 65.078125 0 L 58.40625 0 L 58.40625 -47.203125 L 58.25 -47.203125 L 38.0625 0 L 34.015625 0 L 13.828125 -47.203125 L 13.671875 -47.203125 L 13.671875 0 L 7 0 L 7 -56.265625 Z M 16.921875 -56.265625 "/></g></g></g><g fill="#ffffff" fill-opacity="1"><g transform="translate(244.77982, 103.257078)"><g/></g></g><g fill="#ffffff" fill-opacity="1"><g transform="translate(266.869987, 103.257078)"><g><path d="M 31.546875 -56.265625 L 55.46875 0 L 47.6875 0 L 41.953125 -13.828125 L 13.828125 -13.828125 L 8.03125 0 L 0.484375 0 L 25.265625 -56.265625 Z M 28.125 -47.6875 L 16.453125 -20.03125 L 39.421875 -20.03125 L 28.296875 -47.6875 Z M 28.125 -47.6875 "/></g></g></g><g fill="#ffffff" fill-opacity="1"><g transform="translate(322.810547, 103.257078)"><g><path d="M 13.671875 -56.265625 L 13.671875 0 L 7 0 L 7 -56.265625 Z M 13.671875 -56.265625 "/></g></g></g><g clip-path="url(#849a085193)"><path fill="#ffffff" d="M 345.851562 43.113281 C 356.351562 43.042969 358.226562 41.792969 358.308594 26.289062 C 358.308594 25.898438 358.628906 25.578125 359.015625 25.578125 C 359.40625 25.578125 359.726562 25.898438 359.726562 26.289062 C 359.808594 41.792969 361.683594 43.042969 372.183594 43.113281 C 372.65625 43.117188 373.039062 43.5 373.039062 43.96875 C 373.039062 44.4375 372.65625 44.820312 372.183594 44.824219 C 361.683594 44.894531 359.808594 46.144531 359.726562 61.648438 C 359.726562 62.039062 359.40625 62.359375 359.019531 62.359375 C 358.628906 62.359375 358.308594 62.039062 358.308594 61.648438 C 358.230469 46.144531 356.351562 44.894531 345.851562 44.824219 C 345.378906 44.820312 344.996094 44.4375 344.996094 43.96875 C 344.996094 43.5 345.378906 43.117188 345.851562 43.113281 Z M 345.851562 43.113281 " fill-opacity="1" fill-rule="nonzero"/></g><g clip-path="url(#0eeb319b18)"><path fill="#ffffff" d="M 314.46875 30.269531 C 322.113281 30.21875 323.613281 29.21875 323.671875 17.882812 C 323.671875 17.667969 323.847656 17.496094 324.058594 17.496094 C 324.269531 17.496094 324.441406 17.667969 324.445312 17.882812 C 324.5 29.21875 326.003906 30.21875 333.648438 30.269531 C 333.917969 30.269531 334.140625 30.492188 334.140625 30.761719 C 334.140625 31.027344 333.917969 31.25 333.648438 31.25 C 326.003906 31.300781 324.5 32.300781 324.445312 43.636719 C 324.441406 43.851562 324.269531 44.023438 324.058594 44.023438 C 323.847656 44.023438 323.671875 43.851562 323.671875 43.636719 C 323.613281 32.300781 322.109375 31.300781 314.46875 31.25 C 314.195312 31.25 313.976562 31.027344 313.976562 30.761719 C 313.976562 30.492188 314.195312 30.269531 314.46875 30.269531 Z M 314.46875 30.269531 " fill-opacity="1" fill-rule="nonzero"/></g><path fill="#ffffff" d="M 334.324219 50.722656 C 334.804688 52.132812 335.625 53.191406 336.695312 53.761719 C 335.625 54.335938 334.804688 55.390625 334.324219 56.804688 C 333.84375 55.390625 333.023438 54.335938 331.957031 53.761719 C 333.023438 53.191406 333.84375 52.132812 334.324219 50.722656 Z M 334.324219 50.722656 " fill-opacity="1" fill-rule="nonzero"/><path fill="#ffffff" d="M 348.296875 28.136719 C 347.816406 26.726562 346.996094 25.667969 345.929688 25.097656 C 346.996094 24.523438 347.816406 23.46875 348.296875 22.054688 C 348.78125 23.46875 349.601562 24.523438 350.667969 25.097656 C 349.601562 25.667969 348.777344 26.726562 348.296875 28.136719 Z M 348.296875 28.136719 " fill-opacity="1" fill-rule="nonzero"/></svg>